<svg width="18" height="14" viewBox="0 0 18 14" fill="none" xmlns="http://www.w3.org/2000/svg">
<path d="M1.3125 8.9375H7.875V4.78125C7.89323 4.34375 8.03906 3.97917 8.3125 3.6875C8.60417 3.41406 8.96875 3.26823 9.40625 3.25H14.2188C15.1484 3.26823 15.9232 3.58724 16.543 4.20703C17.1628 4.82682 17.4818 5.60156 17.5 6.53125V12.4375C17.4635 12.8385 17.2448 13.0573 16.8438 13.0938C16.4427 13.0573 16.224 12.8385 16.1875 12.4375V10.25H1.3125V12.2188C1.27604 12.6198 1.05729 12.8385 0.65625 12.875C0.255208 12.8385 0.0364583 12.6198 0 12.2188V1.28125C0.0364583 0.880208 0.255208 0.661458 0.65625 0.625C1.05729 0.661458 1.27604 0.880208 1.3125 1.28125V8.9375ZM14.2188 4.5625H9.40625C9.27865 4.58073 9.20573 4.65365 9.1875 4.78125V8.9375H16.1875V6.53125C16.1693 5.96615 15.9779 5.5013 15.6133 5.13672C15.2487 4.77214 14.7839 4.58073 14.2188 4.5625ZM7 5.65625C6.98177 6.33073 6.74479 6.89583 6.28906 7.35156C5.83333 7.80729 5.26823 8.04427 4.59375 8.0625C3.91927 8.04427 3.35417 7.80729 2.89844 7.35156C2.44271 6.89583 2.20573 6.33073 2.1875 5.65625C2.20573 4.98177 2.44271 4.41667 2.89844 3.96094C3.35417 3.50521 3.91927 3.26823 4.59375 3.25C5.26823 3.26823 5.83333 3.50521 6.28906 3.96094C6.74479 4.41667 6.98177 4.98177 7 5.65625ZM4.59375 4.5625C4.28385 4.5625 4.02865 4.67188 3.82812 4.89062C3.60938 5.09115 3.5 5.34635 3.5 5.65625C3.5 5.96615 3.60938 6.22135 3.82812 6.42188C4.02865 6.64062 4.28385 6.75 4.59375 6.75C4.90365 6.75 5.15885 6.64062 5.35938 6.42188C5.57812 6.22135 5.6875 5.96615 5.6875 5.65625C5.6875 5.34635 5.57812 5.09115 5.35938 4.89062C5.15885 4.67188 4.90365 4.5625 4.59375 4.5625Z" fill="#737373"/>
</svg>
