<svg width="14" height="13" viewBox="0 0 14 13" fill="none" xmlns="http://www.w3.org/2000/svg">
<path d="M2.1875 7.625C2.1875 7.36979 2.26953 7.16016 2.43359 6.99609C2.59766 6.83203 2.80729 6.75 3.0625 6.75C3.31771 6.75 3.52734 6.83203 3.69141 6.99609C3.85547 7.16016 3.9375 7.36979 3.9375 7.625C3.9375 7.88021 3.85547 8.08984 3.69141 8.25391C3.52734 8.41797 3.31771 8.5 3.0625 8.5C2.80729 8.5 2.59766 8.41797 2.43359 8.25391C2.26953 8.08984 2.1875 7.88021 2.1875 7.625ZM11.8125 7.625C11.8125 7.88021 11.7305 8.08984 11.5664 8.25391C11.4023 8.41797 11.1927 8.5 10.9375 8.5C10.6823 8.5 10.4727 8.41797 10.3086 8.25391C10.1445 8.08984 10.0625 7.88021 10.0625 7.625C10.0625 7.36979 10.1445 7.16016 10.3086 6.99609C10.4727 6.83203 10.6823 6.75 10.9375 6.75C11.1927 6.75 11.4023 6.83203 11.5664 6.99609C11.7305 7.16016 11.8125 7.36979 11.8125 7.625ZM1.3125 4.91797L2.24219 2.23828C2.42448 1.74609 2.71615 1.35417 3.11719 1.0625C3.53646 0.770833 4.0013 0.625 4.51172 0.625H9.48828C9.9987 0.625 10.4544 0.770833 10.8555 1.0625C11.2747 1.35417 11.5755 1.74609 11.7578 2.23828L12.6875 4.91797C13.0885 5.15495 13.4076 5.46484 13.6445 5.84766C13.8815 6.2487 14 6.69531 14 7.1875V12.2188C13.9635 12.6198 13.7448 12.8385 13.3438 12.875C12.9427 12.8385 12.724 12.6198 12.6875 12.2188V10.6875H1.3125V12.2188C1.27604 12.6198 1.05729 12.8385 0.65625 12.875C0.255208 12.8385 0.0364583 12.6198 0 12.2188V7.1875C0 6.69531 0.11849 6.2487 0.355469 5.84766C0.592448 5.46484 0.911458 5.15495 1.3125 4.91797ZM2.81641 4.5625H11.1836L10.5 2.67578C10.3177 2.20182 9.98047 1.95573 9.48828 1.9375H4.51172C4.01953 1.95573 3.68229 2.20182 3.5 2.67578L2.81641 4.5625ZM11.375 5.875H2.625C2.26042 5.89323 1.95052 6.02083 1.69531 6.25781C1.45833 6.51302 1.33073 6.82292 1.3125 7.1875V9.375H12.6875V7.1875C12.6693 6.82292 12.5417 6.51302 12.3047 6.25781C12.0495 6.02083 11.7396 5.89323 11.375 5.875Z" fill="#737373"/>
</svg>
