<svg width="14" height="15" viewBox="0 0 14 15" fill="none" xmlns="http://www.w3.org/2000/svg">
<path d="M13.5352 7.3125H7.4375V1.21484C7.45573 0.941406 7.60156 0.786458 7.875 0.75C9.02344 0.768229 10.0534 1.05078 10.9648 1.59766C11.8945 2.1263 12.6237 2.85547 13.1523 3.78516C13.6992 4.69661 13.9818 5.72656 14 6.875C13.9635 7.14844 13.8086 7.29427 13.5352 7.3125ZM6.125 8.625H12.168C12.4414 8.625 12.651 8.71615 12.7969 8.89844C12.9609 9.08073 13.0247 9.29948 12.9883 9.55469C12.6419 11.0677 11.8854 12.3073 10.7188 13.2734C9.55208 14.2214 8.16667 14.7135 6.5625 14.75C5.34115 14.7318 4.23828 14.431 3.25391 13.8477C2.26953 13.2643 1.48568 12.4805 0.902344 11.4961C0.31901 10.5117 0.0182292 9.40885 0 8.1875C0.0364583 6.58333 0.528646 5.19792 1.47656 4.03125C2.44271 2.86458 3.68229 2.10807 5.19531 1.76172C5.45052 1.72526 5.66927 1.78906 5.85156 1.95312C6.03385 2.09896 6.125 2.30859 6.125 2.58203V8.625ZM4.8125 3.23828C3.77344 3.62109 2.9349 4.25 2.29688 5.125C1.65885 6 1.33073 7.02083 1.3125 8.1875C1.34896 9.68229 1.85938 10.9219 2.84375 11.9062C3.82812 12.8906 5.06771 13.401 6.5625 13.4375C7.72917 13.4193 8.75 13.0911 9.625 12.4531C10.5 11.8151 11.1289 10.9766 11.5117 9.9375H4.8125V3.23828Z" fill="#171717"/>
</svg>
