<svg width="14" height="15" viewBox="0 0 14 15" fill="none" xmlns="http://www.w3.org/2000/svg">
<path d="M10.9375 13V11.25H12.25V13C12.2318 13.4922 12.0586 13.9023 11.7305 14.2305C11.4023 14.5586 10.9922 14.7318 10.5 14.75H3.5C3.00781 14.7318 2.59766 14.5586 2.26953 14.2305C1.94141 13.9023 1.76823 13.4922 1.75 13V11.25H3.0625V13C3.08073 13.2734 3.22656 13.4193 3.5 13.4375H10.5C10.7734 13.4193 10.9193 13.2734 10.9375 13ZM11.375 1.625C12.1224 1.64323 12.7422 1.89844 13.2344 2.39062C13.7266 2.88281 13.9818 3.5026 14 4.25C13.9818 4.6875 13.8268 5.38932 13.5352 6.35547C13.2617 7.30339 12.9883 8.19661 12.7148 9.03516C12.4232 9.8737 12.2682 10.3203 12.25 10.375H1.75C1.73177 10.3203 1.57682 9.8737 1.28516 9.03516C1.01172 8.19661 0.738281 7.30339 0.464844 6.35547C0.173177 5.38932 0.0182292 4.6875 0 4.25C0 3.73958 0.127604 3.27474 0.382812 2.85547C0.638021 2.45443 0.99349 2.13542 1.44922 1.89844C1.83203 1.71615 2.22396 1.625 2.625 1.625C3.1901 1.60677 3.71875 1.78906 4.21094 2.17188C4.86719 1.26042 5.79688 0.786458 7 0.75C7.5651 0.75 8.09375 0.877604 8.58594 1.13281C9.0599 1.38802 9.46094 1.73438 9.78906 2.17188C10.263 1.80729 10.7917 1.625 11.375 1.625ZM11.3477 9.0625C11.5846 8.4974 11.8034 7.86849 12.0039 7.17578C12.2044 6.5013 12.3685 5.89062 12.4961 5.34375C12.6237 4.79688 12.6875 4.43229 12.6875 4.25C12.6693 3.88542 12.5417 3.57552 12.3047 3.32031C12.0495 3.08333 11.7396 2.95573 11.375 2.9375C11.0833 2.9375 10.819 3.02865 10.582 3.21094L9.54297 4.00391L8.75 2.96484C8.29427 2.38151 7.71094 2.08073 7 2.0625C6.28906 2.08073 5.70573 2.38151 5.25 2.96484L4.45703 4.00391L3.41797 3.21094C3.18099 3.02865 2.91667 2.9375 2.625 2.9375C2.42448 2.9375 2.23307 2.98307 2.05078 3.07422C1.57682 3.32943 1.33073 3.72135 1.3125 4.25C1.3125 4.43229 1.3763 4.79688 1.50391 5.34375C1.63151 5.89062 1.79557 6.5013 1.99609 7.17578C2.19661 7.86849 2.40625 8.4974 2.625 9.0625H3.77344L3.0625 5.20703C3.04427 4.91536 3.16276 4.74219 3.41797 4.6875C3.67318 4.66927 3.84635 4.78776 3.9375 5.04297L4.64844 9.0625H6.5625V5.125C6.58073 4.85156 6.72656 4.70573 7 4.6875C7.27344 4.70573 7.41927 4.85156 7.4375 5.125V9.0625H9.35156L10.0352 5.04297C10.1081 4.78776 10.2812 4.66927 10.5547 4.6875C10.8099 4.76042 10.9284 4.93359 10.9102 5.20703L10.1992 9.0625H11.3477Z" fill="#737373"/>
</svg>
