<svg width="19" height="13" viewBox="0 0 19 13" fill="none" xmlns="http://www.w3.org/2000/svg">
<path d="M6.3 6.7C6.32188 5.80312 6.62813 5.05937 7.21875 4.46875C7.80938 3.87812 8.55313 3.57187 9.45 3.55C10.3469 3.57187 11.0906 3.87812 11.6813 4.46875C12.2719 5.05937 12.5781 5.80312 12.6 6.7C12.5781 7.59687 12.2719 8.34062 11.6813 8.93125C11.0906 9.52187 10.3469 9.82812 9.45 9.85C8.55313 9.82812 7.80938 9.52187 7.21875 8.93125C6.62813 8.34062 6.32188 7.59687 6.3 6.7ZM0 2.5C0.021875 1.90937 0.229688 1.41719 0.623438 1.02344C1.01719 0.629687 1.50938 0.421874 2.1 0.399999H16.8C17.3906 0.421874 17.8828 0.629687 18.2766 1.02344C18.6703 1.41719 18.8781 1.90937 18.9 2.5V10.9C18.8781 11.4906 18.6703 11.9828 18.2766 12.3766C17.8828 12.7703 17.3906 12.9781 16.8 13H2.1C1.50938 12.9781 1.01719 12.7703 0.623438 12.3766C0.229688 11.9828 0.021875 11.4906 0 10.9V2.5ZM1.575 4.075V9.325C2.16563 9.34687 2.65781 9.55469 3.05156 9.94844C3.44531 10.3422 3.65313 10.8344 3.675 11.425H15.225C15.2469 10.8344 15.4547 10.3422 15.8484 9.94844C16.2422 9.55469 16.7344 9.34687 17.325 9.325V4.075C16.7344 4.05312 16.2422 3.84531 15.8484 3.45156C15.4547 3.05781 15.2469 2.56562 15.225 1.975H3.675C3.65313 2.56562 3.44531 3.05781 3.05156 3.45156C2.65781 3.84531 2.16563 4.05312 1.575 4.075Z" fill="#171717"/>
</svg>
