<svg width="10" height="15" viewBox="0 0 10 15" fill="none" xmlns="http://www.w3.org/2000/svg">
<path d="M5.65625 2.74609C6.42188 2.85547 7.07812 2.97396 7.625 3.10156C7.98958 3.21094 8.14453 3.47526 8.08984 3.89453C7.96224 4.27734 7.70703 4.44141 7.32422 4.38672C6.88672 4.27734 6.38542 4.1862 5.82031 4.11328C5.27344 4.02214 4.73568 3.99479 4.20703 4.03125C3.67839 4.06771 3.25911 4.1862 2.94922 4.38672C2.67578 4.55078 2.49349 4.82422 2.40234 5.20703C2.34766 5.51693 2.36589 5.74479 2.45703 5.89062C2.52995 6.03646 2.6849 6.19141 2.92188 6.35547C3.45052 6.64714 4.19792 6.90234 5.16406 7.12109H5.21875C5.65625 7.23047 6.09375 7.35807 6.53125 7.50391C6.98698 7.64974 7.39714 7.83203 7.76172 8.05078C8.16276 8.26953 8.48177 8.59766 8.71875 9.03516C8.91927 9.47266 8.97396 9.97396 8.88281 10.5391C8.64583 11.5052 8.0625 12.1432 7.13281 12.4531C6.67708 12.6354 6.1849 12.7357 5.65625 12.7539V14.0938C5.61979 14.4948 5.40104 14.7135 5 14.75C4.59896 14.7135 4.38021 14.4948 4.34375 14.0938V12.7266C4.2526 12.7266 4.16146 12.7174 4.07031 12.6992H4.04297C3.69661 12.6445 3.27734 12.5534 2.78516 12.4258C2.27474 12.2982 1.82812 12.1523 1.44531 11.9883C1.09896 11.7878 0.989583 11.5052 1.11719 11.1406C1.31771 10.776 1.60938 10.6576 1.99219 10.7852C2.30208 10.931 2.67578 11.0586 3.11328 11.168C3.55078 11.2773 3.93359 11.3594 4.26172 11.4141C5.24609 11.5234 6.03906 11.4688 6.64062 11.25C7.20573 11.013 7.52474 10.694 7.59766 10.293C7.65234 9.96484 7.63411 9.73698 7.54297 9.60938C7.47005 9.46354 7.3151 9.30859 7.07812 9.14453C6.53125 8.85286 5.78385 8.59766 4.83594 8.37891H4.78125C4.34375 8.26953 3.90625 8.14193 3.46875 7.99609C3.01302 7.85026 2.60286 7.67708 2.23828 7.47656C1.83724 7.23958 1.51823 6.90234 1.28125 6.46484C1.0625 6.02734 1.00781 5.52604 1.11719 4.96094C1.28125 4.17708 1.66406 3.61198 2.26562 3.26562C2.83073 2.9375 3.44141 2.75521 4.09766 2.71875C4.17057 2.71875 4.2526 2.71875 4.34375 2.71875V1.40625C4.38021 1.00521 4.59896 0.786458 5 0.75C5.40104 0.786458 5.61979 1.00521 5.65625 1.40625V2.74609Z" fill="#171717"/>
</svg>
