<svg width="14" height="15" viewBox="0 0 14 15" fill="none" xmlns="http://www.w3.org/2000/svg">
<path d="M8.3125 1.40625C8.34896 1.00521 8.56771 0.786458 8.96875 0.75H13.3438C13.7448 0.786458 13.9635 1.00521 14 1.40625V5.78125C13.9635 6.18229 13.7448 6.40104 13.3438 6.4375C12.9427 6.40104 12.724 6.18229 12.6875 5.78125V2.99219L6.58984 9.08984C6.27995 9.34505 5.97005 9.34505 5.66016 9.08984C5.40495 8.77995 5.40495 8.47005 5.66016 8.16016L11.7578 2.0625H8.96875C8.56771 2.02604 8.34896 1.80729 8.3125 1.40625ZM1.96875 1.625H5.46875C5.86979 1.66146 6.08854 1.88021 6.125 2.28125C6.08854 2.68229 5.86979 2.90104 5.46875 2.9375H1.96875C1.56771 2.97396 1.34896 3.19271 1.3125 3.59375V12.7812C1.34896 13.1823 1.56771 13.401 1.96875 13.4375H11.1562C11.5573 13.401 11.776 13.1823 11.8125 12.7812V9.28125C11.849 8.88021 12.0677 8.66146 12.4688 8.625C12.8698 8.66146 13.0885 8.88021 13.125 9.28125V12.7812C13.1068 13.3464 12.9154 13.8112 12.5508 14.1758C12.1862 14.5404 11.7214 14.7318 11.1562 14.75H1.96875C1.40365 14.7318 0.938802 14.5404 0.574219 14.1758C0.209635 13.8112 0.0182292 13.3464 0 12.7812V3.59375C0.0182292 3.02865 0.209635 2.5638 0.574219 2.19922C0.938802 1.83464 1.40365 1.64323 1.96875 1.625Z" fill="#155E75"/>
</svg>
