<svg width="14" height="13" viewBox="0 0 14 13" fill="none" xmlns="http://www.w3.org/2000/svg">
<path d="M4.15625 3.03125C4.52083 3.04948 4.83073 3.17708 5.08594 3.41406C5.32292 3.66927 5.45052 3.97917 5.46875 4.34375C5.45052 4.70833 5.32292 5.01823 5.08594 5.27344C4.83073 5.51042 4.52083 5.63802 4.15625 5.65625C3.79167 5.63802 3.48177 5.51042 3.22656 5.27344C2.98958 5.01823 2.86198 4.70833 2.84375 4.34375C2.86198 3.97917 2.98958 3.66927 3.22656 3.41406C3.48177 3.17708 3.79167 3.04948 4.15625 3.03125ZM12.2227 0.625C12.7331 0.643229 13.1523 0.816406 13.4805 1.14453C13.7904 1.47266 13.9544 1.88281 13.9727 2.375V11.125C13.9544 11.6172 13.7812 12.0273 13.4531 12.3555C13.125 12.6836 12.7148 12.8568 12.2227 12.875H1.72266C1.2487 12.8568 0.847656 12.6836 0.519531 12.3555C0.191406 12.0273 0.0182292 11.6172 0 11.125V2.375C0.0182292 1.88281 0.191406 1.47266 0.519531 1.14453C0.847656 0.816406 1.2487 0.643229 1.72266 0.625H12.2227ZM12.6602 10.9336H12.6875V2.375C12.6693 2.10156 12.5234 1.95573 12.25 1.9375H1.75C1.47656 1.95573 1.33073 2.10156 1.3125 2.375V11.0977L3.39062 8.52734C3.48177 8.41797 3.60938 8.36328 3.77344 8.36328C3.95573 8.36328 4.09245 8.41797 4.18359 8.52734L5.19531 9.78516L8.12109 5.84766C8.21224 5.72005 8.34896 5.65625 8.53125 5.65625C8.71354 5.65625 8.84115 5.72005 8.91406 5.84766L12.6602 10.9336Z" fill="#737373"/>
</svg>
