<svg width="14" height="13" viewBox="0 0 14 13" fill="none" xmlns="http://www.w3.org/2000/svg">
<path d="M7.4375 0.625C7.80208 0.643229 8.11198 0.770833 8.36719 1.00781C8.60417 1.26302 8.73177 1.57292 8.75 1.9375V11.5625C8.73177 11.9271 8.60417 12.237 8.36719 12.4922C8.11198 12.7292 7.80208 12.8568 7.4375 12.875H6.5625C6.19792 12.8568 5.88802 12.7292 5.63281 12.4922C5.39583 12.237 5.26823 11.9271 5.25 11.5625V1.9375C5.26823 1.57292 5.39583 1.26302 5.63281 1.00781C5.88802 0.770833 6.19792 0.643229 6.5625 0.625H7.4375ZM7.4375 1.9375H6.5625V11.5625H7.4375V1.9375ZM3.0625 5.875C3.42708 5.89323 3.73698 6.02083 3.99219 6.25781C4.22917 6.51302 4.35677 6.82292 4.375 7.1875V11.5625C4.35677 11.9271 4.22917 12.237 3.99219 12.4922C3.73698 12.7292 3.42708 12.8568 3.0625 12.875H2.1875C1.82292 12.8568 1.51302 12.7292 1.25781 12.4922C1.02083 12.237 0.893229 11.9271 0.875 11.5625V7.1875C0.893229 6.82292 1.02083 6.51302 1.25781 6.25781C1.51302 6.02083 1.82292 5.89323 2.1875 5.875H3.0625ZM3.0625 7.1875H2.1875V11.5625H3.0625V7.1875ZM9.625 3.6875C9.64323 3.32292 9.77083 3.01302 10.0078 2.75781C10.263 2.52083 10.5729 2.39323 10.9375 2.375H11.8125C12.1771 2.39323 12.487 2.52083 12.7422 2.75781C12.9792 3.01302 13.1068 3.32292 13.125 3.6875V11.5625C13.1068 11.9271 12.9792 12.237 12.7422 12.4922C12.487 12.7292 12.1771 12.8568 11.8125 12.875H10.9375C10.5729 12.8568 10.263 12.7292 10.0078 12.4922C9.77083 12.237 9.64323 11.9271 9.625 11.5625V3.6875ZM10.9375 11.5625H11.8125V3.6875H10.9375V11.5625Z" fill="#171717"/>
</svg>
