<svg width="16" height="13" viewBox="0 0 16 13" fill="none" xmlns="http://www.w3.org/2000/svg">
<path d="M15.7227 12.2188C15.7227 12.4193 15.6589 12.5742 15.5312 12.6836C15.4036 12.793 15.2669 12.8568 15.1211 12.875C14.9753 12.875 14.7201 12.8112 14.3555 12.6836C13.9727 12.556 13.5716 12.3281 13.1523 12C12.3685 12.5651 11.4935 12.8477 10.5273 12.8477C9.54297 12.8477 8.66797 12.5651 7.90234 12C7.13672 12.5651 6.26172 12.8568 5.27734 12.875C4.22005 12.8568 3.28125 12.5651 2.46094 12C2.04167 12.3646 1.66797 12.6016 1.33984 12.7109C1.01172 12.8385 0.792969 12.8932 0.683594 12.875C0.264323 12.8203 0.0455729 12.6016 0.0273438 12.2188C0.0455729 11.8724 0.227865 11.6536 0.574219 11.5625C1.10286 11.4167 1.48568 11.1888 1.72266 10.8789C1.94141 10.6237 2.17839 10.487 2.43359 10.4688C2.63411 10.487 2.84375 10.5964 3.0625 10.7969C3.24479 10.9609 3.50911 11.125 3.85547 11.2891C4.18359 11.4531 4.64844 11.5443 5.25 11.5625C5.77865 11.5443 6.1888 11.4622 6.48047 11.3164C6.79036 11.1523 7.03646 10.9883 7.21875 10.8242C7.4375 10.6055 7.65625 10.487 7.875 10.4688C8.09375 10.487 8.3125 10.6055 8.53125 10.8242C8.71354 10.9883 8.95964 11.1523 9.26953 11.3164C9.5612 11.4622 9.97135 11.5443 10.5 11.5625C11.0104 11.5443 11.4115 11.4622 11.7031 11.3164C12.013 11.1523 12.2591 10.9883 12.4414 10.8242C12.6602 10.6055 12.8789 10.487 13.0977 10.4688C13.3529 10.487 13.5898 10.6146 13.8086 10.8516C13.9544 10.9792 14.1276 11.1159 14.3281 11.2617C14.5469 11.3893 14.8294 11.4896 15.1758 11.5625C15.5221 11.6536 15.7044 11.8724 15.7227 12.2188ZM13.125 0.625C13.8724 0.643229 14.4922 0.898438 14.9844 1.39062C15.4766 1.88281 15.7318 2.5026 15.75 3.25V3.46875C15.7135 3.86979 15.4948 4.08854 15.0938 4.125C14.6927 4.08854 14.474 3.86979 14.4375 3.46875V3.25C14.4193 2.88542 14.2917 2.57552 14.0547 2.32031C13.7995 2.08333 13.4896 1.95573 13.125 1.9375C12.7604 1.95573 12.4505 2.08333 12.1953 2.32031C11.9583 2.57552 11.8307 2.88542 11.8125 3.25V9.59375C11.776 9.99479 11.5573 10.2135 11.1562 10.25C10.7552 10.2135 10.5365 9.99479 10.5 9.59375V7.1875H4.8125V9.59375C4.77604 9.99479 4.55729 10.2135 4.15625 10.25C3.75521 10.2135 3.53646 9.99479 3.5 9.59375V3.25C3.51823 2.5026 3.77344 1.89193 4.26562 1.41797C4.75781 0.925781 5.3776 0.670573 6.125 0.652344C6.8724 0.670573 7.49219 0.925781 7.98438 1.41797C8.47656 1.89193 8.73177 2.5026 8.75 3.25V3.46875C8.71354 3.86979 8.49479 4.08854 8.09375 4.125C7.69271 4.08854 7.47396 3.86979 7.4375 3.46875V3.25C7.41927 2.88542 7.29167 2.57552 7.05469 2.32031C6.79948 2.08333 6.48958 1.95573 6.125 1.9375C5.76042 1.95573 5.45052 2.08333 5.19531 2.32031C4.95833 2.57552 4.83073 2.88542 4.8125 3.25V5.875H10.5V3.25C10.5182 2.5026 10.7734 1.88281 11.2656 1.39062C11.7578 0.898438 12.3776 0.643229 13.125 0.625Z" fill="#737373"/>
</svg>
