<svg width="14" height="15" viewBox="0 0 14 15" fill="none" xmlns="http://www.w3.org/2000/svg">
<path d="M13.3438 7.75C13.7448 7.78646 13.9635 8.00521 14 8.40625C13.9635 8.80729 13.7448 9.02604 13.3438 9.0625H13.125V11.25C13.1068 12.0156 12.8151 12.6628 12.25 13.1914V14.0938C12.2135 14.4948 11.9948 14.7135 11.5938 14.75C11.1927 14.7135 10.974 14.4948 10.9375 14.0938V13.8203C10.7917 13.8568 10.6458 13.875 10.5 13.875H3.5C3.35417 13.875 3.20833 13.8568 3.0625 13.8203V14.0938C3.02604 14.4948 2.80729 14.7135 2.40625 14.75C2.00521 14.7135 1.78646 14.4948 1.75 14.0938V13.1914C1.1849 12.6628 0.893229 12.0156 0.875 11.25V9.0625H0.65625C0.255208 9.02604 0.0364583 8.80729 0 8.40625C0.0364583 8.00521 0.255208 7.78646 0.65625 7.75H0.875V2.63672C0.875 2.16276 1.02995 1.7526 1.33984 1.40625C1.64974 1.0599 2.05078 0.85026 2.54297 0.777344C3.16276 0.722656 3.70052 0.914062 4.15625 1.35156L4.18359 1.37891C4.56641 1.21484 4.95833 1.16016 5.35938 1.21484C5.76042 1.26953 6.13411 1.45182 6.48047 1.76172L6.86328 2.17188C6.99089 2.09896 7.11849 2.0625 7.24609 2.0625C7.41016 2.0625 7.55599 2.1263 7.68359 2.25391C7.9388 2.5638 7.9388 2.8737 7.68359 3.18359L5.05859 5.80859C4.93099 5.9362 4.77604 6 4.59375 6C4.41146 6 4.25651 5.9362 4.12891 5.80859C3.91016 5.55339 3.88281 5.27995 4.04688 4.98828L3.63672 4.60547C3.34505 4.25911 3.16276 3.88542 3.08984 3.48438C3.03516 3.08333 3.08984 2.70052 3.25391 2.33594L3.17188 2.22656C2.98958 2.0625 2.77995 2.02604 2.54297 2.11719C2.32422 2.22656 2.20573 2.39974 2.1875 2.63672V7.75H13.3438ZM5.55078 2.69141C5.22266 2.4362 4.89453 2.4362 4.56641 2.69141C4.3112 3.01953 4.3112 3.34766 4.56641 3.67578L4.94922 4.05859L5.93359 3.07422L5.55078 2.69141ZM11.8125 11.25V9.0625H2.1875V11.25C2.20573 11.6146 2.33333 11.9245 2.57031 12.1797C2.82552 12.4167 3.13542 12.5443 3.5 12.5625H10.5C10.8646 12.5443 11.1745 12.4167 11.4297 12.1797C11.6667 11.9245 11.7943 11.6146 11.8125 11.25Z" fill="#737373"/>
</svg>
